<svg width="28" height="12" viewBox="0 0 28 12" fill="none" xmlns="http://www.w3.org/2000/svg">
<path fill-rule="evenodd" clip-rule="evenodd" d="M15.2909 0L19.1351 7.28688C18.4753 7.34426 17.7868 7.43033 17.0982 7.54508C15.9794 7.71721 14.8892 7.97541 13.7991 8.23361C12.7663 8.46311 11.6761 8.69262 10.5573 8.86475C9.49578 9.03688 8.43431 9.12295 7.43021 9.12295C7.11464 9.12295 6.79906 9.09426 6.48349 9.09426L15.1187 4.56147L14.1146 2.66803L9.35234 3.38525L9.26628 3.21311L15.2909 0Z" fill="#9DBBDB"/>
<path fill-rule="evenodd" clip-rule="evenodd" d="M0 7.8606C0 7.8606 3.41393 10.0696 7.43033 10.0696C9.52459 10.0696 11.8197 9.63928 14 9.15158C16.123 8.63519 18.3607 8.17617 20.5697 8.17617C24.041 8.17617 26.8525 10.3278 28 11.5901C28 11.5901 24.5861 9.38109 20.5697 9.38109C18.4754 9.38109 16.1803 9.81142 14 10.2991C11.877 10.8155 9.63934 11.2745 7.43033 11.2745C3.93033 11.2745 1.14754 9.12289 0 7.8606Z" fill="#9DBBDB"/>
<path fill-rule="evenodd" clip-rule="evenodd" d="M0 7.8606C0 7.8606 3.41393 10.0696 7.43033 10.0696C9.52459 10.0696 11.8197 9.63928 14 9.15158C16.123 8.63519 18.3607 8.17617 20.5697 8.17617C24.041 8.17617 26.8525 10.3278 28 11.5901C28 11.5901 24.5861 9.38109 20.5697 9.38109C18.4754 9.38109 16.1803 9.81142 14 10.2991C11.877 10.8155 9.63934 11.2745 7.43033 11.2745C3.93033 11.2745 1.14754 9.12289 0 7.8606Z" fill="#9DBBDB"/>
<path fill-rule="evenodd" clip-rule="evenodd" d="M21.4304 6.54098C22.75 6.54098 23.8402 5.47951 23.8402 4.15984C23.8402 2.84016 22.75 1.75 21.4304 1.75C20.1107 1.75 19.0492 2.84016 19.0492 4.15984C19.0205 5.45082 20.1107 6.54098 21.4304 6.54098Z" fill="#9DBBDB"/>
</svg>
