<svg width="24" height="20" viewBox="0 0 24 20" fill="none" xmlns="http://www.w3.org/2000/svg">
<path fill-rule="evenodd" clip-rule="evenodd" d="M7.23091 8.26403L1.06159 1.14778L1.17636 1.00431L7.71872 6.02585L1.95112 0.143473L2.09459 0L9.72734 5.02155L14.3185 6.74322L22.0947 5.05024L15.0358 8.52228L14.4906 9.95701L19.1105 16.3272L12.2525 10.3013L7.23091 8.26403Z" fill="#9DBBDB"/>
<path fill-rule="evenodd" clip-rule="evenodd" d="M0 16.9583C0 16.9583 2.81207 18.766 6.11194 18.766C7.86231 18.766 9.72745 18.393 11.5065 17.9913C13.2569 17.5608 15.0933 17.1878 16.9011 17.1878C19.7705 17.1878 22.0661 18.9669 23.013 19.9999C23.013 19.9999 20.201 18.1634 16.9011 18.1634C15.1507 18.1634 13.2569 18.5365 11.4778 18.9382C9.78484 19.3973 7.9197 19.799 6.11194 19.799C3.24248 19.799 0.94692 17.9913 0 16.9583Z" fill="#9DBBDB"/>
<path fill-rule="evenodd" clip-rule="evenodd" d="M17.475 11.5352C18.3358 11.5352 19.0245 10.8178 19.0245 9.95698C19.0245 9.09614 18.3071 8.40747 17.475 8.40747C16.6142 8.40747 15.8968 9.09614 15.8968 9.95698C15.8968 10.8178 16.6142 11.5352 17.475 11.5352Z" fill="#9DBBDB"/>
</svg>
