<svg width="17" height="20" viewBox="0 0 17 20" fill="none" xmlns="http://www.w3.org/2000/svg">
<path fill-rule="evenodd" clip-rule="evenodd" d="M8.39476 4C9.50587 4 10.3948 3.08642 10.3948 2C10.3948 0.91358 9.50587 0 8.39476 0C7.28365 0 6.39476 0.91358 6.39476 2C6.39476 3.11111 7.28365 4 8.39476 4Z" fill="#9DBBDB"/>
<path fill-rule="evenodd" clip-rule="evenodd" d="M9.50616 4.86392L15.3086 4.02441L15.4074 4.19725L10.716 6.74046V11.6787H6.07406V6.74046L1.38271 4.19725L1.48147 4.02441L7.25925 4.86392H9.50616ZM10.7901 12.9133L12.4938 19.9256L12.1975 19.9997L8.91357 14.4935H7.87653L4.59258 19.9997L4.32098 19.901L6.02468 12.8886H10.7901V12.9133Z" fill="#9DBBDB"/>
<path d="M11.4568 7.01221C12.4444 7.13566 13.358 7.28381 14.0988 7.50603C15.7531 7.97517 16.7901 8.66653 16.7901 9.53073C16.7901 10.3949 15.7531 11.111 14.0988 11.5554C12.6173 11.9505 10.6173 12.2221 8.39506 12.2221C6.17284 12.2221 4.17284 11.9752 2.69136 11.5554C1.03704 11.111 0 10.3949 0 9.53073C0 8.66653 1.03704 7.95048 2.69136 7.50603C3.45679 7.3085 4.34568 7.13566 5.33333 7.01221V8.07394C3.01235 8.34554 1.40741 8.88875 1.40741 9.53073C1.40741 10.4196 4.54321 11.1604 8.39506 11.1604C12.2469 11.1604 15.4074 10.4196 15.4074 9.53073C15.4074 8.88875 13.8025 8.32085 11.4568 8.07394V7.01221Z" fill="#9DBBDB"/>
</svg>
