<svg width="23" height="16" viewBox="0 0 23 16" fill="none" xmlns="http://www.w3.org/2000/svg">
<path fill-rule="evenodd" clip-rule="evenodd" d="M16.0886 2.5818C16.032 2.07648 15.8054 0.108395 15.0123 0.00201162C14.6724 -0.0245841 14.5024 0.214778 14.2192 0.587118C14.0492 0.82648 13.8509 1.06584 13.5677 1.35839C13.8793 2.10308 14.1625 2.98073 14.3608 3.91159C14.3891 4.12435 14.4458 4.33712 14.4741 4.54988C15.1256 3.93818 15.6637 3.2201 16.0886 2.5818Z" fill="#9DBBDB"/>
<path fill-rule="evenodd" clip-rule="evenodd" d="M23 9.78934C22.4052 9.3904 21.0739 8.61913 19.601 8.59253C18.9212 8.59253 18.2697 8.64572 17.7316 8.7521C17.3067 9.33721 16.7685 9.86912 16.1737 10.3213C16.6835 10.4542 17.25 10.667 17.7882 10.9596C18.3264 11.0127 18.9212 11.0393 19.5444 10.9596C21.4988 10.7202 22.5468 10.1351 23 9.78934Z" fill="#9DBBDB"/>
<path fill-rule="evenodd" clip-rule="evenodd" d="M20.1392 15.0022C19.1478 11.9703 16.7402 11.1193 15.2673 10.9065C14.7858 11.1459 14.2759 11.3586 13.7377 11.5182C13.2562 11.6512 12.7464 11.731 12.2365 11.7576C12.9446 12.6352 13.7944 13.2735 14.7008 13.7256C16.9951 14.9225 19.4877 15.0022 19.9693 15.0288C20.0259 15.0022 20.1109 15.0022 20.1392 15.0022Z" fill="#9DBBDB"/>
<path fill-rule="evenodd" clip-rule="evenodd" d="M13.6527 10.7202C15.1539 10.2681 16.3719 9.33726 17.1933 8.14045C18.0714 6.89045 18.5246 5.34789 18.553 3.77875C18.553 2.98087 18.4397 2.15641 18.2131 1.38513C18.1847 1.27875 18.1281 1.22555 18.0998 1.19896C18.0714 1.17236 18.0431 1.17236 18.0148 1.17236C17.9581 1.17236 17.9015 1.19896 17.8448 1.22555C17.7599 1.27875 17.6749 1.35853 17.6466 1.43832L17.6182 1.51811C17.3067 2.12981 16.2869 4.17768 14.5874 5.50747C14.6158 5.82662 14.6441 6.14577 14.6441 6.43832C14.6724 7.26279 14.6158 8.08726 14.4458 8.83194C14.2759 9.57662 14.0209 10.2149 13.6527 10.7202Z" fill="#9DBBDB"/>
<path fill-rule="evenodd" clip-rule="evenodd" d="M11.5 0.0288086C10.7069 0.0288086 9.88547 1.89051 9.43226 4.07136C9.29064 4.84264 9.17734 5.66711 9.17734 6.46498C9.14901 7.23626 9.20566 8.00753 9.34729 8.69902C9.63054 10.0554 10.3103 11.0394 11.5 11.0394C12.6897 11.0394 13.3411 10.0554 13.6527 8.69902C13.7943 8.03413 13.851 7.26285 13.8227 6.46498C13.7943 5.66711 13.7094 4.84264 13.5677 4.07136C13.1145 1.86391 12.2931 0.0288086 11.5 0.0288086Z" fill="#9DBBDB"/>
<path fill-rule="evenodd" clip-rule="evenodd" d="M6.93967 2.5818C6.99632 2.07648 7.22292 0.108395 8.01602 0.00201162C8.35592 -0.0245841 8.52587 0.214778 8.80912 0.587118C8.97907 0.82648 9.17735 1.06584 9.4606 1.35839C9.14903 2.10308 8.86577 2.98073 8.6675 3.91159C8.63917 4.12435 8.58252 4.33712 8.5542 4.54988C7.8744 3.93818 7.33622 3.2201 6.93967 2.5818Z" fill="#9DBBDB"/>
<path fill-rule="evenodd" clip-rule="evenodd" d="M0 9.78934C0.594828 9.3904 1.92611 8.61913 3.39901 8.59253C4.07882 8.59253 4.70197 8.64572 5.26847 8.7521C5.69335 9.33721 6.23153 9.86912 6.82635 10.3213C6.3165 10.4542 5.75 10.667 5.21182 10.9596C4.67365 11.0127 4.07882 11.0393 3.45566 10.9596C1.50123 10.7202 0.481527 10.1351 0 9.78934Z" fill="#9DBBDB"/>
<path fill-rule="evenodd" clip-rule="evenodd" d="M2.8609 15.0022C3.88061 11.9703 6.28824 11.1193 7.76115 10.9065C8.24267 11.1459 8.75253 11.3586 9.2907 11.5182C9.77223 11.6512 10.2821 11.731 10.7919 11.7576C10.0838 12.6352 9.23405 13.2735 8.32765 13.7256C6.03331 14.9225 3.5407 15.0022 3.05918 15.0288C2.9742 15.0022 2.91755 15.0022 2.8609 15.0022Z" fill="#9DBBDB"/>
<path fill-rule="evenodd" clip-rule="evenodd" d="M9.37562 10.7202C7.87439 10.2681 6.65641 9.33726 5.83498 8.14045C4.9569 6.89045 4.5037 5.34789 4.47537 3.77875C4.47537 2.98087 4.58867 2.15641 4.8436 1.38513C4.87192 1.27875 4.90025 1.22555 4.9569 1.19896C4.98522 1.17236 5.01355 1.17236 5.04187 1.17236C5.09852 1.17236 5.15518 1.19896 5.21183 1.22555C5.26848 1.27875 5.32513 1.33194 5.38178 1.43832L5.4101 1.51811C5.72168 2.12981 6.74138 4.17768 8.44089 5.50747C8.41256 5.82662 8.38424 6.14577 8.38424 6.43832C8.35591 7.26279 8.41256 8.08726 8.58251 8.83194C8.72414 9.57662 8.97907 10.2149 9.37562 10.7202Z" fill="#9DBBDB"/>
</svg>
