<svg width="15" height="18" viewBox="0 0 15 18" fill="none" xmlns="http://www.w3.org/2000/svg">
<path fill-rule="evenodd" clip-rule="evenodd" d="M6.64122 4.87786H7.28244H7.92366L13.145 2.06107C13.1221 1.96947 13.0992 1.87786 13.0992 1.78626C13.0992 1.39695 13.4198 1.05344 13.8321 1.05344C14.2443 1.05344 14.5649 1.37405 14.5649 1.78626C14.5649 2.17557 14.2443 2.51908 13.8321 2.51908C13.626 2.51908 13.4427 2.42748 13.3053 2.29008L9.41221 5.8855V9.45802L12.5954 16.5802C12.687 16.5573 12.7786 16.5343 12.8702 16.5343C13.2824 16.5343 13.6031 16.855 13.6031 17.2672C13.6031 17.6565 13.2824 18 12.8702 18C12.4809 18 12.1374 17.6794 12.1374 17.2672C12.1374 17.0382 12.229 16.8321 12.3893 16.7176L7.87786 11.4733H7.25954H6.64122L2.12977 16.6947C2.29008 16.8321 2.38168 17.0382 2.38168 17.2443C2.38168 17.6336 2.06107 17.9771 1.64885 17.9771C1.25954 17.9771 0.91603 17.6565 0.91603 17.2443C0.91603 16.8321 1.23664 16.5114 1.64885 16.5114C1.74046 16.5114 1.85496 16.5344 1.92366 16.5573L5.10687 9.43511V5.8855L1.25954 2.29008C1.12214 2.42748 0.938931 2.51908 0.732824 2.51908C0.320611 2.51908 0 2.19847 0 1.78626C0 1.39695 0.320611 1.05344 0.732824 1.05344C1.14504 1.05344 1.46565 1.37405 1.46565 1.78626C1.46565 1.87786 1.44275 1.96947 1.41985 2.06107L6.64122 4.87786ZM7.28244 0C8.19847 0 8.9313 0.732824 8.9313 1.64885C8.9313 2.56489 8.19847 3.29771 7.28244 3.29771C6.36641 3.29771 5.63359 2.56489 5.63359 1.64885C5.63359 0.732824 6.36641 0 7.28244 0Z" fill="#9DBBDB"/>
</svg>
