<svg width="15" height="17" viewBox="0 0 15 17" fill="none" xmlns="http://www.w3.org/2000/svg">
<path fill-rule="evenodd" clip-rule="evenodd" d="M7.1579 8.94737C9.62864 8.94737 11.6316 6.94443 11.6316 4.47368C11.6316 2.00294 9.62864 0 7.1579 0C4.68715 0 2.68421 2.00294 2.68421 4.47368C2.68421 6.94443 4.68715 8.94737 7.1579 8.94737ZM14.3158 12.5263V17H0V12.5263C0 10.7368 0.894737 9.39474 2.68421 9.39474C4.1619 9.39474 4.8261 9.80148 5.42321 10.1671C5.91074 10.4657 6.35354 10.7368 7.15789 10.7368C7.96224 10.7368 8.40505 10.4657 8.89258 10.1671C9.48969 9.80148 10.1539 9.39474 11.6316 9.39474C13.4211 9.39474 14.3158 10.7368 14.3158 12.5263Z" fill="#ED4432"/>
</svg>
