<svg width="33" height="19" viewBox="0 0 33 19" fill="none" xmlns="http://www.w3.org/2000/svg">
<path d="M16.5 0.25C10.5814 0.25 5.9709 3.77656 0.3125 9.5C5.1832 14.3924 9.27344 18.75 16.5 18.75C23.7193 18.75 29.0309 13.2289 32.6875 9.60117C28.9441 5.35195 23.6398 0.25 16.5 0.25ZM16.5 16.0979C12.9301 16.0979 10.025 13.135 10.025 9.5C10.025 5.85781 12.9301 2.90215 16.5 2.90215C20.0699 2.90215 22.975 5.86504 22.975 9.5C22.975 13.1422 20.0699 16.0979 16.5 16.0979Z" fill="white"/>
<path d="M16.5 7.18745C16.5 6.61655 16.7096 6.09624 17.0492 5.69155C16.8686 5.66265 16.6879 5.64819 16.5 5.64819C14.4188 5.64819 12.7205 7.37534 12.7205 9.49995C12.7205 11.6246 14.4188 13.3517 16.5 13.3517C18.5813 13.3517 20.2795 11.6246 20.2795 9.49995C20.2795 9.33374 20.2651 9.16753 20.2506 9.00132C19.8531 9.31206 19.3617 9.49995 18.8197 9.49995C17.5334 9.49995 16.5 8.46655 16.5 7.18745Z" fill="white"/>
</svg>
