<svg width="200" height="27" viewBox="0 0 200 27" fill="none" xmlns="http://www.w3.org/2000/svg">
<path fill-rule="evenodd" clip-rule="evenodd" d="M27.6071 1.46167C30.463 1.46167 32.7996 3.78334 32.7996 6.53494C32.7996 9.37254 30.463 11.6082 27.6071 11.6082C24.7512 11.6082 22.4145 9.28655 22.4145 6.53494C22.4145 3.78334 24.7512 1.46167 27.6071 1.46167Z" fill="#DD2A1B"/>
<path fill-rule="evenodd" clip-rule="evenodd" d="M0.173084 14.1018C12.8083 4.55721 23.3665 25.2802 34.0113 13.7579V13.3279C23.1934 22.0127 13.3276 1.54765 0 13.7579C0.0865427 13.9299 0.173084 14.0158 0.173084 14.1018Z" fill="#0C57A6"/>
<path fill-rule="evenodd" clip-rule="evenodd" d="M0.173084 18.6592C12.7218 9.11457 23.3665 29.7516 34.0113 18.3153V17.8853C23.1069 26.5701 13.3276 6.10501 0 18.3153C0.0865427 18.4013 0.173084 18.4872 0.173084 18.6592Z" fill="#0C57A6"/>
<path fill-rule="evenodd" clip-rule="evenodd" d="M0.347189 22.9585C12.8959 13.4139 23.5406 34.1369 34.1854 22.6146V22.1846C23.281 30.8694 13.5017 10.4043 0.174103 22.6146C0.260645 22.7006 0.260646 22.7865 0.347189 22.9585Z" fill="#0C57A6"/>
<path d="M194.375 7.13697V3.95543H192.731C192.125 3.95543 191.605 4.04142 191.259 4.12741C190.654 4.38537 190.307 4.81531 190.307 5.50321C190.307 6.01913 190.567 6.44907 190.913 6.70703C191.346 6.965 191.952 7.13697 192.731 7.13697H194.375ZM54.8681 0C58.8491 0 62.2242 1.63376 63.9551 3.95543C61.7915 4.04142 59.6279 4.12741 57.4644 4.21339C56.6855 3.78346 55.8201 3.52549 54.8681 3.52549C53.743 3.52549 52.7045 3.95543 51.8391 4.55734C49.6755 4.72932 47.4254 4.90129 45.0888 5.07327C46.4735 2.14969 50.3679 0 54.8681 0ZM64.3878 4.55734C64.907 5.41722 65.1667 6.36308 65.1667 7.39493C63.2627 7.39493 61.2723 7.48092 59.3683 7.56691C59.3683 7.48092 59.3683 7.48092 59.3683 7.39493C59.3683 6.36308 58.8491 5.41722 58.0702 4.72932C60.1472 4.64333 62.3108 4.55734 64.3878 4.55734ZM65.0801 7.99685C64.9936 8.94271 64.6474 9.80259 64.0416 10.6625C61.6184 10.7484 59.1087 10.8344 56.599 10.9204C57.8971 10.4045 58.9356 9.37265 59.1952 8.08283C61.1857 7.99685 63.1762 7.99685 65.0801 7.99685ZM63.6089 11.2644C61.7915 13.3281 58.5029 14.7899 54.8681 14.7899C51.5795 14.7899 48.637 13.672 46.7331 11.9523C52.4449 11.5223 58.0702 11.2644 63.6089 11.2644ZM46.4735 11.6083C45.608 10.7484 45.0022 9.7166 44.7426 8.59876C44.9157 8.59876 45.0022 8.68474 45.1753 8.68474C46.9927 8.59876 48.8101 8.42678 50.6275 8.34079C51.0602 9.63061 52.1853 10.6625 53.743 11.0924C51.3199 11.2644 48.8967 11.4363 46.4735 11.6083ZM44.7426 8.51277C44.6561 8.16882 44.6561 7.73888 44.6561 7.39493C44.6561 6.62104 44.8292 5.93314 45.0888 5.24524C45.1753 5.24524 45.1753 5.24524 45.1753 5.24524C47.2524 5.07327 49.4159 4.98728 51.4929 4.90129C50.8871 5.58919 50.4544 6.44907 50.4544 7.39493C50.4544 7.65289 50.4544 7.82487 50.541 8.08283C48.637 8.16882 46.6466 8.3408 44.7426 8.51277ZM84.6388 14.2739H79.0135V11.4364C80.9174 11.5223 82.8214 11.6083 84.6388 11.6943V14.2739ZM78.927 10.5765V8.16882C80.8309 8.25481 82.7348 8.3408 84.5522 8.42679V10.7484C82.7348 10.6625 80.8309 10.5765 78.927 10.5765ZM78.927 7.30894V4.72932C80.8309 4.8153 82.7348 4.81531 84.5522 4.98728V7.48092C82.7348 7.39493 80.8309 7.30894 78.927 7.30894ZM75.8114 4.64333V6.44907C75.8114 6.70703 75.8114 6.965 75.8114 7.22296C73.9075 7.22296 72.0035 7.22296 70.0996 7.22296C70.0996 6.965 70.0996 6.62105 70.0996 6.36308C70.0996 6.10512 70.0996 5.93314 70.0996 5.67518C70.0996 5.41722 70.0996 5.24524 70.0996 4.90129V4.72932V4.47135C72.0035 4.55734 73.9075 4.64333 75.8114 4.64333ZM75.8114 8.08283C75.8114 9.20067 75.7249 9.97456 75.6383 10.5765C73.5613 10.5765 71.3977 10.5765 69.3207 10.6625C69.4938 10.4905 69.5803 10.3185 69.6669 10.0605C69.84 9.63061 69.9265 8.94271 70.0131 8.08283C71.917 7.99685 73.8209 7.99685 75.8114 8.08283ZM75.3787 11.3504C75.0325 12.2962 74.3402 12.8981 73.7344 13.4141C72.869 14.102 71.4843 14.3599 69.7534 14.4459C68.7149 14.5319 67.3302 14.4459 66.2052 14.4459V11.2644C69.3207 11.2644 72.3497 11.2644 75.3787 11.3504ZM70.0131 3.86944V0.429938H84.5522V4.04141C79.8789 3.86944 75.0325 3.78345 70.0131 3.86944ZM108.005 14.3599L102.64 14.2739V12.4682C104.457 12.5542 106.188 12.7262 108.005 12.8981V14.3599ZM102.64 11.3504V9.20067C104.457 9.28666 106.188 9.45863 108.005 9.63061V11.6943C106.188 11.6083 104.37 11.4363 102.64 11.3504ZM102.64 8.08283V6.62104H102.553L101.255 8.08283C99.5241 7.99685 97.7067 7.91086 95.8893 7.82487L97.9663 5.58919C101.342 5.76117 104.63 6.01913 108.005 6.2771V8.51277C106.188 8.3408 104.37 8.16882 102.64 8.08283ZM100.303 9.0287L98.4856 11.0924C95.7162 11.0064 92.9469 10.8344 90.1775 10.7484V8.42679C93.5527 8.68475 96.9278 8.85672 100.303 9.0287ZM97.5336 12.1242L95.6297 14.3599H90.1775V11.6943C92.6872 11.8663 95.1104 12.0383 97.5336 12.1242ZM90.1775 7.48092V5.07327C91.9949 5.15926 93.8988 5.24524 95.7162 5.33123V7.73888C93.8123 7.65289 91.9949 7.56691 90.1775 7.48092ZM90.1775 4.04141V0.515924H95.7162V4.29938C93.8123 4.21339 91.9949 4.1274 90.1775 4.04141ZM98.9183 4.47135L102.467 0.60191H107.919V4.98728C104.976 4.81531 101.947 4.64333 98.9183 4.47135ZM129.814 13.1561V11.1784C131.631 11.2644 133.362 11.4363 135.093 11.6083V13.672C133.362 13.4141 131.631 13.2421 129.814 13.1561ZM129.814 9.88857V7.73888C131.631 7.91086 133.362 7.99685 135.093 8.16882V10.3185C133.362 10.1465 131.631 9.97456 129.814 9.88857ZM129.468 7.6529L128.516 9.80259C125.487 9.54462 122.544 9.28666 119.515 9.0287L118.737 7.13697H118.563V8.94271C116.919 8.85672 115.188 8.68475 113.544 8.59876V6.36308C116.919 6.62105 120.208 6.87901 123.496 7.13697L124.362 9.28666H124.448L125.227 7.30894C126.698 7.39493 128.083 7.48092 129.468 7.6529ZM128.083 10.9204L127.304 12.8981C125.227 12.7262 123.15 12.5542 120.987 12.3822L120.121 10.3185C122.804 10.4905 125.4 10.7484 128.083 10.9204ZM126.698 14.102L126.612 14.2739H121.679L121.419 13.672C123.237 13.844 124.968 14.016 126.698 14.102ZM118.563 10.2325V12.2102C116.919 12.1242 115.188 11.9523 113.544 11.8663V9.80259C115.275 9.88857 116.919 10.0605 118.563 10.2325ZM118.563 13.5V14.2739H113.544V13.0701C115.275 13.1561 116.919 13.3281 118.563 13.5ZM113.544 5.15926V0.60191H120.814L122.977 5.84716C119.862 5.5892 116.746 5.41722 113.544 5.15926ZM125.833 6.10512L127.997 0.687903L135.18 0.60191V6.87901C132.064 6.62104 128.949 6.36308 125.833 6.10512ZM157.767 14.2739H152.142V12.3822C154.046 12.4682 155.863 12.5542 157.767 12.6402V14.2739ZM152.142 11.2644V8.94271C154.046 9.0287 155.863 9.11468 157.767 9.20067V11.6083C155.863 11.5223 154.046 11.4363 152.142 11.2644ZM152.142 7.82487V4.29938L146.344 4.21339V7.39493C144.44 7.22296 142.622 7.13697 140.718 6.96499V0.515924H157.681V8.08283C155.863 8.08283 154.046 7.99684 152.142 7.82487ZM146.344 8.59876V10.9204C144.44 10.7484 142.622 10.6625 140.718 10.4905V8.25481C142.622 8.34079 144.526 8.51277 146.344 8.59876ZM146.344 12.0383V14.102C144.44 14.016 142.622 13.844 140.718 13.672V11.6083C142.622 11.7803 144.526 11.9523 146.344 12.0383ZM180.961 14.4459L175.595 14.3599V12.8981C177.412 12.8981 179.23 12.8122 180.961 12.8122V14.4459ZM175.595 12.1242V9.45863C177.412 9.45863 179.23 9.37265 180.961 9.37265V12.1242C179.143 12.1242 177.326 12.1242 175.595 12.1242ZM175.595 8.68474V7.05098H175.509L174.037 8.68474C170.489 8.59876 166.941 8.51277 163.393 8.34079V0.60191H168.758V8.16882H168.845L175.509 0.687903L180.961 0.60191V8.68474C179.143 8.77073 177.326 8.77073 175.595 8.68474ZM173.258 9.45863L170.922 12.0383C168.412 11.9523 165.902 11.8663 163.393 11.7803V9.37265C166.681 9.45864 169.97 9.45863 173.258 9.45863ZM170.056 12.8981L168.672 14.3599H163.219V12.7262C165.643 12.8122 167.893 12.8981 170.056 12.8981ZM199.74 14.4459H194.115V12.2102C195.76 12.1242 197.49 11.9523 199.135 11.7803V11.6083C197.49 11.6943 195.76 11.8663 194.115 11.9523V10.1465L192.557 12.0383C190.48 12.1242 188.403 12.2102 186.326 12.2102L189.182 9.28666C189.096 9.28666 189.096 9.28666 189.096 9.28666C192.471 9.11469 195.846 8.85672 199.221 8.42679V8.25481C195.327 8.51277 191.346 8.77074 187.538 8.85672C187.019 8.68475 186.586 8.42678 186.326 8.08283C185.547 7.39493 185.201 6.53506 185.201 5.50321C185.201 3.86944 186.499 1.97771 188.144 1.3758C189.096 1.03185 190.48 0.77389 192.211 0.77389H199.914L199.74 14.4459ZM192.125 12.3822L190.48 14.4459H184.422V14.102L185.721 12.7262C187.884 12.6402 189.961 12.5542 192.125 12.3822Z" fill="#0C57A6"/>
<path fill-rule="evenodd" clip-rule="evenodd" d="M49.3293 21.4107C50.887 21.4107 51.839 21.4967 52.1852 21.8406C52.5313 22.0986 52.6179 22.6145 52.6179 23.5604H50.9736C50.9736 23.3024 50.887 23.0445 50.7139 22.9585C50.5409 22.8725 50.0216 22.7865 49.3293 22.7865C48.5504 22.7865 48.0311 22.8725 47.858 22.9585C47.685 23.0445 47.5984 23.4744 47.5984 24.1623C47.5984 24.8502 47.685 25.1942 47.858 25.3661C47.9446 25.4521 48.4638 25.5381 49.3293 25.5381C50.0216 25.5381 50.5409 25.5381 50.7139 25.4521C50.887 25.3661 50.9736 25.1942 50.9736 24.8502H52.7044C52.7044 25.7961 52.5313 26.398 52.2717 26.57C51.9255 26.8279 50.9736 26.9999 49.4158 26.9999C47.858 26.9999 46.9061 26.8279 46.5599 26.57C46.2137 26.312 46.0406 25.5381 46.0406 24.2483C46.0406 22.9585 46.2137 22.1846 46.4734 21.9266C46.8195 21.5827 47.7715 21.4107 49.3293 21.4107ZM54.0026 21.4967H61.0991V26.9139H59.4548V22.9585H55.7334V26.9139H54.0891V21.4967H54.0026ZM69.6668 24.2483C69.6668 25.5381 69.4937 26.312 69.2341 26.57C68.8879 26.8279 67.8494 26.9999 66.1185 26.9999C64.8204 26.9999 64.0415 26.9139 63.6088 26.8279C63.0895 26.7419 62.8299 26.484 62.6568 26.054C62.5703 25.7961 62.4838 25.1082 62.4838 24.1623C62.4838 22.8725 62.6568 22.0986 62.9165 21.8406C63.2626 21.5827 64.3011 21.4107 66.032 21.4107C67.7629 21.4107 68.8014 21.5827 69.1475 21.8406C69.4937 22.0986 69.6668 22.8725 69.6668 24.2483ZM64.2146 24.2483C64.2146 24.9362 64.3011 25.3661 64.4742 25.4521C64.6473 25.5381 65.1666 25.6241 66.1185 25.6241C67.0705 25.6241 67.6763 25.5381 67.7629 25.4521C67.9359 25.3661 68.0225 24.9362 68.0225 24.2483C68.0225 23.5604 67.9359 23.1305 67.7629 23.0445C67.5898 22.9585 67.0705 22.8725 66.1185 22.8725C65.1666 22.8725 64.5608 22.9585 64.4742 23.0445C64.3011 23.1305 64.2146 23.4744 64.2146 24.2483ZM70.9649 21.4967H75.0324C75.8979 21.4967 76.5037 21.5827 76.7633 21.8406C77.1095 22.0986 77.2825 22.7005 77.2825 23.5604C77.2825 24.4203 77.1095 25.0222 76.7633 25.2802C76.5037 25.5381 75.8979 25.6241 75.0324 25.6241H72.6092V26.9139H70.9649V21.4967ZM72.6092 24.1623H75.0324C75.2055 24.1623 75.3786 24.0763 75.4651 24.0763C75.5517 23.9903 75.6382 23.8184 75.6382 23.5604C75.6382 23.3024 75.5517 23.1305 75.4651 23.0445C75.3786 22.9585 75.2055 22.9585 75.0324 22.9585H72.6092V24.1623ZM78.2345 22.9585V21.4967H84.6387V22.8725H82.302V26.8279H80.6577V22.8725H78.2345V22.9585ZM85.9368 21.4967H87.5811V25.1942C87.4946 25.3661 87.4946 25.4521 87.4946 25.6241C87.4946 25.7101 87.4946 25.7101 87.4946 25.7961C87.4946 25.7961 87.5811 25.7961 87.5811 25.7101C87.5811 25.6241 87.6677 25.6241 87.6677 25.5381L90.5236 21.5827H93.2064V26.9999H91.5621V23.2164C91.5621 23.2164 91.5621 23.0445 91.6486 22.7865C91.6486 22.7005 91.6486 22.7005 91.6486 22.6145C91.6486 22.6145 91.5621 22.6145 91.5621 22.7005C91.5621 22.7865 91.4755 22.8725 91.4755 22.8725L88.6196 26.8279H85.9368V21.4967ZM96.495 24.7642H99.3509C99.524 24.7642 99.6105 24.8502 99.6971 24.8502C99.7836 24.9362 99.7836 25.0222 99.7836 25.1942C99.7836 25.4521 99.6105 25.6241 99.2644 25.6241H96.4085V24.7642H96.495ZM94.7642 21.4967V26.9139H99.7836C100.389 26.9139 100.822 26.8279 101.082 26.57C101.341 26.312 101.514 25.9681 101.514 25.4521C101.514 24.8502 101.255 24.4203 100.736 24.1623C100.909 24.0763 100.995 23.9043 101.168 23.7324C101.255 23.5604 101.341 23.3024 101.341 23.0445C101.341 22.4426 101.168 21.9266 100.822 21.7547C100.563 21.5827 100.216 21.4967 99.6971 21.4967H94.7642ZM96.495 22.7865H99.4375C99.524 22.7865 99.6971 22.7865 99.6971 22.8725C99.7836 22.9585 99.7836 23.0445 99.7836 23.1305C99.7836 23.2164 99.6971 23.3884 99.6971 23.3884C99.6105 23.4744 99.524 23.4744 99.4375 23.4744H96.495V22.7865ZM102.813 21.4967H104.457V23.3884H108.092V21.4967H109.736V26.9139H108.092V24.8502H104.457V26.9139H102.813V21.4967ZM118.39 21.4967H120.035V26.9139H118.39V21.4967ZM111.121 26.9139V21.4967H112.765V22.7865H115.188C116.054 22.7865 116.659 22.8725 116.919 23.1305C117.265 23.3884 117.438 23.9903 117.438 24.8502C117.438 25.7101 117.265 26.312 116.919 26.57C116.659 26.8279 116.054 26.9139 115.188 26.9139H111.121ZM112.765 24.2483V25.5381H115.188C115.361 25.5381 115.534 25.5381 115.621 25.4521C115.707 25.3661 115.794 25.1942 115.794 24.9362C115.794 24.6782 115.707 24.5063 115.621 24.4203C115.534 24.3343 115.361 24.2483 115.188 24.2483H112.765ZM121.16 21.4967H122.804V25.1942C122.717 25.2802 122.717 25.4521 122.717 25.6241C122.717 25.7101 122.717 25.7101 122.717 25.7961L122.804 25.7101C122.804 25.6241 122.891 25.5381 122.891 25.5381L125.746 21.5827H128.429V26.9999H126.785V23.2164C126.785 23.2164 126.785 23.0445 126.871 22.7865C126.871 22.7005 126.871 22.7005 126.871 22.6145C126.871 22.6145 126.785 22.6145 126.785 22.7005C126.785 22.7865 126.698 22.7865 126.698 22.8725L123.842 26.8279H121.16V21.4967ZM126.352 20.4648H123.669V21.2387H126.352V20.4648ZM133.968 21.4967H135.612V23.3884H136.478L138.382 21.4967H140.632L137.949 24.0763L140.978 26.9139H138.555L136.391 24.8502H135.526V26.9139H133.881V21.4967H133.968ZM149.373 24.2483C149.373 25.5381 149.199 26.312 148.94 26.57C148.594 26.8279 147.555 26.9999 145.824 26.9999C144.526 26.9999 143.747 26.9139 143.315 26.8279C142.795 26.7419 142.536 26.484 142.363 26.054C142.276 25.7961 142.19 25.1082 142.19 24.1623C142.19 22.8725 142.363 22.0986 142.622 21.8406C142.968 21.5827 144.007 21.4107 145.738 21.4107C147.469 21.4107 148.507 21.5827 148.853 21.8406C149.199 22.0986 149.373 22.8725 149.373 24.2483ZM143.834 24.2483C143.834 24.9362 143.92 25.3661 144.093 25.4521C144.267 25.5381 144.786 25.6241 145.738 25.6241C146.69 25.6241 147.296 25.5381 147.382 25.4521C147.555 25.3661 147.642 24.9362 147.642 24.2483C147.642 23.5604 147.555 23.1305 147.382 23.0445C147.209 22.9585 146.69 22.8725 145.738 22.8725C144.786 22.8725 144.18 22.9585 144.093 23.0445C143.92 23.1305 143.834 23.4744 143.834 24.2483ZM150.498 21.5827V26.9139H152.142V23.1305C152.142 23.0445 152.142 23.0445 152.142 22.9585C152.142 22.7865 152.055 22.7005 152.055 22.7005C152.055 22.6145 152.055 22.6145 152.142 22.6145C152.142 22.6145 152.142 22.6145 152.228 22.7005C152.228 22.7865 152.315 22.7865 152.315 22.8725L154.392 26.8279H155.777L157.681 22.8725C157.681 22.7865 157.767 22.7865 157.767 22.7005C157.854 22.6145 157.854 22.6145 157.854 22.6145C157.854 22.6145 157.854 22.6145 157.854 22.7005C157.854 22.7005 157.854 22.7865 157.854 22.8725C157.854 22.9585 157.767 23.0445 157.767 23.1305V26.9139H159.412V21.5827H156.556L155.084 24.5922C155.084 24.7642 154.998 24.9362 154.998 25.1082C154.998 25.1942 154.998 25.2802 154.911 25.2802C154.911 25.2802 154.825 25.1942 154.825 25.0222C154.825 24.8502 154.825 24.6782 154.738 24.6782L153.267 21.6687H150.498V21.5827ZM161.056 21.4967H168.152V26.9139H166.508V22.9585H162.787V26.9139H161.142V21.4967H161.056ZM176.374 21.4967V26.9139H174.73V22.9585H171.787C171.787 24.5063 171.701 25.5381 171.354 26.14C171.095 26.656 170.662 26.9139 170.056 26.9139H169.277V25.5381C169.71 25.5381 169.883 25.3661 169.97 25.0222C170.056 24.6782 170.056 23.5604 170.056 21.4967H176.374ZM177.845 26.9139V21.4967H183.643V22.7865H179.489V23.5604H183.47V24.8502H179.489V25.6241H183.643V26.9139H177.845ZM185.288 21.4967H186.932V23.3884H187.798L189.701 21.4967H192.038L189.355 24.0763L192.384 26.9139H189.961L187.798 24.8502H186.932V26.9139H185.288V21.4967ZM196.711 21.4107C198.269 21.4107 199.221 21.4967 199.567 21.8406C199.827 22.0986 200 22.6145 200 23.5604H198.356C198.356 23.3024 198.269 23.0445 198.096 22.9585C197.836 22.8725 197.404 22.7865 196.711 22.7865C195.932 22.7865 195.413 22.8725 195.24 22.9585C195.154 23.0445 195.067 23.4744 195.067 24.1623C195.067 24.8502 195.154 25.1942 195.24 25.3661C195.413 25.4521 195.846 25.5381 196.711 25.5381C197.49 25.5381 197.923 25.5381 198.096 25.4521C198.269 25.3661 198.356 25.1942 198.356 24.8502H200C200 25.7961 199.827 26.398 199.567 26.57C199.221 26.8279 198.269 26.9999 196.711 26.9999C195.154 26.9999 194.202 26.8279 193.855 26.57C193.509 26.312 193.336 25.5381 193.336 24.2483C193.336 22.9585 193.509 22.1846 193.769 21.9266C194.202 21.5827 195.154 21.4107 196.711 21.4107Z" fill="#0C57A6"/>
</svg>
